M48
;Layer_Color=9474304
;FILE_FORMAT=4:4
METRIC,TZ
;TYPE=PLATED
T1F00S00C0.3000
T2F00S00C0.9000
T3F00S00C1.2000
%
T01
X2640001Y2582501
X2645000Y2616250
X2706250Y2591250
X2773750Y2608750
X2540000Y2690000
X2795000Y2617500
X2796250Y2581250
X2885000Y2597500
X2870000Y2633750
X2923750Y2610000
T02
X2542750Y2528350
Y2553750
X2568150
Y2528350
X2593550
Y2553750
X2618950
Y2528350
X2644350
Y2553750
X2669750
Y2528350
X2695150
Y2553750
X2720550
Y2528350
X2745950
Y2553750
X2771350
Y2528350
X2731650Y2711250
X2706250
X2680850
X2820450
X2845850
X2871250
X2872950Y2553750
X2847550
X2822150
X2796750
Y2528350
X2822150
X2847550
X2872950
X2898350
Y2553750
X2923750
Y2528350
X2949150
Y2553750
X2974550
Y2528350
T03
X2676250Y2599000
M30
