G04 Layer_Physical_Order=2*
G04 Layer_Color=16711680*
%FSLAX44Y44*%
%MOMM*%
G71*
G01*
G75*
%ADD18C,0.5000*%
%ADD22C,1.5000*%
%ADD23R,1.5000X1.5000*%
%ADD25C,0.6000*%
%ADD26C,1.6500*%
G36*
X3015922Y2753422D02*
X3015922Y2504976D01*
X3015023Y2504078D01*
X2504078Y2504078D01*
X2504078Y2752524D01*
X2504976Y2753422D01*
X3015922Y2753422D01*
D02*
G37*
%LPC*%
G36*
X2822150Y2537428D02*
X2819801Y2537118D01*
X2817611Y2536211D01*
X2815732Y2534769D01*
X2814289Y2532889D01*
X2813382Y2530699D01*
X2813073Y2528350D01*
X2813382Y2526001D01*
X2814289Y2523811D01*
X2815732Y2521931D01*
X2817611Y2520488D01*
X2819801Y2519582D01*
X2822150Y2519272D01*
X2824500Y2519582D01*
X2826689Y2520488D01*
X2828569Y2521931D01*
X2830012Y2523811D01*
X2830919Y2526001D01*
X2831228Y2528350D01*
X2830919Y2530699D01*
X2830012Y2532889D01*
X2828569Y2534769D01*
X2826689Y2536211D01*
X2824500Y2537118D01*
X2822150Y2537428D01*
D02*
G37*
G36*
X2796750D02*
X2794401Y2537118D01*
X2792211Y2536211D01*
X2790331Y2534769D01*
X2788889Y2532889D01*
X2787982Y2530699D01*
X2787673Y2528350D01*
X2787982Y2526001D01*
X2788889Y2523811D01*
X2790331Y2521931D01*
X2792211Y2520488D01*
X2794401Y2519582D01*
X2796750Y2519272D01*
X2799100Y2519582D01*
X2801289Y2520488D01*
X2803169Y2521931D01*
X2804612Y2523811D01*
X2805518Y2526001D01*
X2805828Y2528350D01*
X2805518Y2530699D01*
X2804612Y2532889D01*
X2803169Y2534769D01*
X2801289Y2536211D01*
X2799100Y2537118D01*
X2796750Y2537428D01*
D02*
G37*
G36*
X2771350D02*
X2769001Y2537118D01*
X2766812Y2536211D01*
X2764931Y2534769D01*
X2763489Y2532889D01*
X2762582Y2530699D01*
X2762273Y2528350D01*
X2762582Y2526001D01*
X2763489Y2523811D01*
X2764931Y2521931D01*
X2766812Y2520488D01*
X2769001Y2519582D01*
X2771350Y2519272D01*
X2773700Y2519582D01*
X2775889Y2520488D01*
X2777769Y2521931D01*
X2779212Y2523811D01*
X2780118Y2526001D01*
X2780428Y2528350D01*
X2780118Y2530699D01*
X2779212Y2532889D01*
X2777769Y2534769D01*
X2775889Y2536211D01*
X2773700Y2537118D01*
X2771350Y2537428D01*
D02*
G37*
G36*
X2847550D02*
X2845201Y2537118D01*
X2843011Y2536211D01*
X2841131Y2534769D01*
X2839689Y2532889D01*
X2838782Y2530699D01*
X2838473Y2528350D01*
X2838782Y2526001D01*
X2839689Y2523811D01*
X2841131Y2521931D01*
X2843011Y2520488D01*
X2845201Y2519582D01*
X2847550Y2519272D01*
X2849900Y2519582D01*
X2852089Y2520488D01*
X2853969Y2521931D01*
X2855412Y2523811D01*
X2856318Y2526001D01*
X2856628Y2528350D01*
X2856318Y2530699D01*
X2855412Y2532889D01*
X2853969Y2534769D01*
X2852089Y2536211D01*
X2849900Y2537118D01*
X2847550Y2537428D01*
D02*
G37*
G36*
X2923750D02*
X2921401Y2537118D01*
X2919211Y2536211D01*
X2917332Y2534769D01*
X2915889Y2532889D01*
X2914982Y2530699D01*
X2914673Y2528350D01*
X2914982Y2526001D01*
X2915889Y2523811D01*
X2917332Y2521931D01*
X2919211Y2520488D01*
X2921401Y2519582D01*
X2923750Y2519272D01*
X2926100Y2519582D01*
X2928289Y2520488D01*
X2930169Y2521931D01*
X2931612Y2523811D01*
X2932519Y2526001D01*
X2932828Y2528350D01*
X2932519Y2530699D01*
X2931612Y2532889D01*
X2930169Y2534769D01*
X2928289Y2536211D01*
X2926100Y2537118D01*
X2923750Y2537428D01*
D02*
G37*
G36*
X2898350D02*
X2896001Y2537118D01*
X2893811Y2536211D01*
X2891931Y2534769D01*
X2890489Y2532889D01*
X2889582Y2530699D01*
X2889272Y2528350D01*
X2889582Y2526001D01*
X2890489Y2523811D01*
X2891931Y2521931D01*
X2893811Y2520488D01*
X2896001Y2519582D01*
X2898350Y2519272D01*
X2900700Y2519582D01*
X2902889Y2520488D01*
X2904769Y2521931D01*
X2906212Y2523811D01*
X2907119Y2526001D01*
X2907428Y2528350D01*
X2907119Y2530699D01*
X2906212Y2532889D01*
X2904769Y2534769D01*
X2902889Y2536211D01*
X2900700Y2537118D01*
X2898350Y2537428D01*
D02*
G37*
G36*
X2872950D02*
X2870601Y2537118D01*
X2868411Y2536211D01*
X2866531Y2534769D01*
X2865089Y2532889D01*
X2864182Y2530699D01*
X2863873Y2528350D01*
X2864182Y2526001D01*
X2865089Y2523811D01*
X2866531Y2521931D01*
X2868411Y2520488D01*
X2870601Y2519582D01*
X2872950Y2519272D01*
X2875300Y2519582D01*
X2877489Y2520488D01*
X2879369Y2521931D01*
X2880812Y2523811D01*
X2881718Y2526001D01*
X2882028Y2528350D01*
X2881718Y2530699D01*
X2880812Y2532889D01*
X2879369Y2534769D01*
X2877489Y2536211D01*
X2875300Y2537118D01*
X2872950Y2537428D01*
D02*
G37*
G36*
X2745950D02*
X2743601Y2537118D01*
X2741411Y2536211D01*
X2739531Y2534769D01*
X2738089Y2532889D01*
X2737182Y2530699D01*
X2736873Y2528350D01*
X2737182Y2526001D01*
X2738089Y2523811D01*
X2739531Y2521931D01*
X2741411Y2520488D01*
X2743601Y2519582D01*
X2745950Y2519272D01*
X2748300Y2519582D01*
X2750489Y2520488D01*
X2752369Y2521931D01*
X2753812Y2523811D01*
X2754719Y2526001D01*
X2755028Y2528350D01*
X2754719Y2530699D01*
X2753812Y2532889D01*
X2752369Y2534769D01*
X2750489Y2536211D01*
X2748300Y2537118D01*
X2745950Y2537428D01*
D02*
G37*
G36*
X2618950D02*
X2616601Y2537118D01*
X2614411Y2536211D01*
X2612531Y2534769D01*
X2611089Y2532889D01*
X2610182Y2530699D01*
X2609873Y2528350D01*
X2610182Y2526001D01*
X2611089Y2523811D01*
X2612531Y2521931D01*
X2614411Y2520488D01*
X2616601Y2519582D01*
X2618950Y2519272D01*
X2621300Y2519582D01*
X2623489Y2520488D01*
X2625369Y2521931D01*
X2626812Y2523811D01*
X2627719Y2526001D01*
X2628028Y2528350D01*
X2627719Y2530699D01*
X2626812Y2532889D01*
X2625369Y2534769D01*
X2623489Y2536211D01*
X2621300Y2537118D01*
X2618950Y2537428D01*
D02*
G37*
G36*
X2593550D02*
X2591201Y2537118D01*
X2589012Y2536211D01*
X2587131Y2534769D01*
X2585689Y2532889D01*
X2584782Y2530699D01*
X2584473Y2528350D01*
X2584782Y2526001D01*
X2585689Y2523811D01*
X2587131Y2521931D01*
X2589012Y2520488D01*
X2591201Y2519582D01*
X2593550Y2519272D01*
X2595900Y2519582D01*
X2598089Y2520488D01*
X2599969Y2521931D01*
X2601412Y2523811D01*
X2602318Y2526001D01*
X2602628Y2528350D01*
X2602318Y2530699D01*
X2601412Y2532889D01*
X2599969Y2534769D01*
X2598089Y2536211D01*
X2595900Y2537118D01*
X2593550Y2537428D01*
D02*
G37*
G36*
X2568150D02*
X2565801Y2537118D01*
X2563611Y2536211D01*
X2561731Y2534769D01*
X2560289Y2532889D01*
X2559382Y2530699D01*
X2559073Y2528350D01*
X2559382Y2526001D01*
X2560289Y2523811D01*
X2561731Y2521931D01*
X2563611Y2520488D01*
X2565801Y2519582D01*
X2568150Y2519272D01*
X2570500Y2519582D01*
X2572689Y2520488D01*
X2574569Y2521931D01*
X2576012Y2523811D01*
X2576919Y2526001D01*
X2577228Y2528350D01*
X2576919Y2530699D01*
X2576012Y2532889D01*
X2574569Y2534769D01*
X2572689Y2536211D01*
X2570500Y2537118D01*
X2568150Y2537428D01*
D02*
G37*
G36*
X2644350D02*
X2642001Y2537118D01*
X2639811Y2536211D01*
X2637932Y2534769D01*
X2636489Y2532889D01*
X2635582Y2530699D01*
X2635273Y2528350D01*
X2635582Y2526001D01*
X2636489Y2523811D01*
X2637932Y2521931D01*
X2639811Y2520488D01*
X2642001Y2519582D01*
X2644350Y2519272D01*
X2646700Y2519582D01*
X2648889Y2520488D01*
X2650769Y2521931D01*
X2652212Y2523811D01*
X2653119Y2526001D01*
X2653428Y2528350D01*
X2653119Y2530699D01*
X2652212Y2532889D01*
X2650769Y2534769D01*
X2648889Y2536211D01*
X2646700Y2537118D01*
X2644350Y2537428D01*
D02*
G37*
G36*
X2720550D02*
X2718201Y2537118D01*
X2716011Y2536211D01*
X2714131Y2534769D01*
X2712689Y2532889D01*
X2711782Y2530699D01*
X2711472Y2528350D01*
X2711782Y2526001D01*
X2712689Y2523811D01*
X2714131Y2521931D01*
X2716011Y2520488D01*
X2718201Y2519582D01*
X2720550Y2519272D01*
X2722900Y2519582D01*
X2725089Y2520488D01*
X2726969Y2521931D01*
X2728412Y2523811D01*
X2729319Y2526001D01*
X2729628Y2528350D01*
X2729319Y2530699D01*
X2728412Y2532889D01*
X2726969Y2534769D01*
X2725089Y2536211D01*
X2722900Y2537118D01*
X2720550Y2537428D01*
D02*
G37*
G36*
X2695150D02*
X2692801Y2537118D01*
X2690611Y2536211D01*
X2688731Y2534769D01*
X2687289Y2532889D01*
X2686382Y2530699D01*
X2686073Y2528350D01*
X2686382Y2526001D01*
X2687289Y2523811D01*
X2688731Y2521931D01*
X2690611Y2520488D01*
X2692801Y2519582D01*
X2695150Y2519272D01*
X2697500Y2519582D01*
X2699689Y2520488D01*
X2701569Y2521931D01*
X2703012Y2523811D01*
X2703918Y2526001D01*
X2704228Y2528350D01*
X2703918Y2530699D01*
X2703012Y2532889D01*
X2701569Y2534769D01*
X2699689Y2536211D01*
X2697500Y2537118D01*
X2695150Y2537428D01*
D02*
G37*
G36*
X2669750D02*
X2667401Y2537118D01*
X2665211Y2536211D01*
X2663331Y2534769D01*
X2661889Y2532889D01*
X2660982Y2530699D01*
X2660673Y2528350D01*
X2660982Y2526001D01*
X2661889Y2523811D01*
X2663331Y2521931D01*
X2665211Y2520488D01*
X2667401Y2519582D01*
X2669750Y2519272D01*
X2672100Y2519582D01*
X2674289Y2520488D01*
X2676169Y2521931D01*
X2677612Y2523811D01*
X2678518Y2526001D01*
X2678828Y2528350D01*
X2678518Y2530699D01*
X2677612Y2532889D01*
X2676169Y2534769D01*
X2674289Y2536211D01*
X2672100Y2537118D01*
X2669750Y2537428D01*
D02*
G37*
G36*
X2898350Y2562827D02*
X2896001Y2562518D01*
X2893811Y2561611D01*
X2891931Y2560169D01*
X2890489Y2558289D01*
X2889582Y2556099D01*
X2889272Y2553750D01*
X2889582Y2551400D01*
X2890489Y2549211D01*
X2891931Y2547331D01*
X2893811Y2545889D01*
X2896001Y2544982D01*
X2898350Y2544672D01*
X2900700Y2544982D01*
X2902889Y2545889D01*
X2904769Y2547331D01*
X2906212Y2549211D01*
X2907119Y2551400D01*
X2907428Y2553750D01*
X2907119Y2556099D01*
X2906212Y2558289D01*
X2904769Y2560169D01*
X2902889Y2561611D01*
X2900700Y2562518D01*
X2898350Y2562827D01*
D02*
G37*
G36*
X2541750Y2563745D02*
X2540129Y2563531D01*
X2537687Y2562520D01*
X2535590Y2560911D01*
X2533980Y2558813D01*
X2532969Y2556371D01*
X2532755Y2554750D01*
X2541750D01*
Y2563745D01*
D02*
G37*
G36*
X2847550Y2562827D02*
X2845201Y2562518D01*
X2843011Y2561611D01*
X2841131Y2560169D01*
X2839689Y2558289D01*
X2838782Y2556099D01*
X2838473Y2553750D01*
X2838782Y2551400D01*
X2839689Y2549211D01*
X2841131Y2547331D01*
X2843011Y2545889D01*
X2845201Y2544982D01*
X2847550Y2544672D01*
X2849900Y2544982D01*
X2852089Y2545889D01*
X2853969Y2547331D01*
X2855412Y2549211D01*
X2856318Y2551400D01*
X2856628Y2553750D01*
X2856318Y2556099D01*
X2855412Y2558289D01*
X2853969Y2560169D01*
X2852089Y2561611D01*
X2849900Y2562518D01*
X2847550Y2562827D01*
D02*
G37*
G36*
X2872950D02*
X2870601Y2562518D01*
X2868411Y2561611D01*
X2866531Y2560169D01*
X2865089Y2558289D01*
X2864182Y2556099D01*
X2863873Y2553750D01*
X2864182Y2551400D01*
X2865089Y2549211D01*
X2866531Y2547331D01*
X2868411Y2545889D01*
X2870601Y2544982D01*
X2872950Y2544672D01*
X2875300Y2544982D01*
X2877489Y2545889D01*
X2879369Y2547331D01*
X2880812Y2549211D01*
X2881718Y2551400D01*
X2882028Y2553750D01*
X2881718Y2556099D01*
X2880812Y2558289D01*
X2879369Y2560169D01*
X2877489Y2561611D01*
X2875300Y2562518D01*
X2872950Y2562827D01*
D02*
G37*
G36*
X2924375Y2614703D02*
X2923773Y2614584D01*
X2923750Y2614588D01*
X2921994Y2614239D01*
X2920506Y2613244D01*
X2919511Y2611756D01*
X2919162Y2610000D01*
X2919511Y2608244D01*
X2920506Y2606756D01*
X2921994Y2605761D01*
X2923750Y2605412D01*
X2923809Y2605424D01*
X2932172Y2597061D01*
Y2559645D01*
X2930902Y2559214D01*
X2930169Y2560169D01*
X2928289Y2561611D01*
X2926100Y2562518D01*
X2923750Y2562827D01*
X2921401Y2562518D01*
X2919211Y2561611D01*
X2917332Y2560169D01*
X2915889Y2558289D01*
X2914982Y2556099D01*
X2914673Y2553750D01*
X2914982Y2551400D01*
X2915889Y2549211D01*
X2917332Y2547331D01*
X2919211Y2545889D01*
X2921401Y2544982D01*
X2923750Y2544672D01*
X2926100Y2544982D01*
X2928289Y2545889D01*
X2930169Y2547331D01*
X2930902Y2548286D01*
X2932172Y2547855D01*
Y2541250D01*
X2932172Y2541250D01*
X2932482Y2539689D01*
X2933366Y2538366D01*
X2940573Y2531160D01*
X2940382Y2530699D01*
X2940073Y2528350D01*
X2940382Y2526001D01*
X2941289Y2523811D01*
X2942731Y2521931D01*
X2944612Y2520488D01*
X2946801Y2519582D01*
X2949150Y2519272D01*
X2951500Y2519582D01*
X2953689Y2520488D01*
X2955569Y2521931D01*
X2957012Y2523811D01*
X2957918Y2526001D01*
X2958228Y2528350D01*
X2957918Y2530699D01*
X2957012Y2532889D01*
X2955569Y2534769D01*
X2953689Y2536211D01*
X2951500Y2537118D01*
X2949150Y2537428D01*
X2946801Y2537118D01*
X2946340Y2536927D01*
X2940328Y2542939D01*
Y2548377D01*
X2941599Y2548808D01*
X2942731Y2547331D01*
X2944612Y2545889D01*
X2946801Y2544982D01*
X2949150Y2544672D01*
X2951500Y2544982D01*
X2953689Y2545889D01*
X2955569Y2547331D01*
X2957012Y2549211D01*
X2957918Y2551400D01*
X2958228Y2553750D01*
X2957918Y2556099D01*
X2957012Y2558289D01*
X2955569Y2560169D01*
X2953689Y2561611D01*
X2951500Y2562518D01*
X2949150Y2562827D01*
X2946801Y2562518D01*
X2944612Y2561611D01*
X2942731Y2560169D01*
X2941599Y2558692D01*
X2940328Y2559123D01*
Y2598750D01*
X2940328Y2598750D01*
X2940018Y2600311D01*
X2939134Y2601634D01*
X2939134Y2601634D01*
X2927259Y2613509D01*
X2925936Y2614393D01*
X2924375Y2614703D01*
D02*
G37*
G36*
X2770260Y2751578D02*
X2770260Y2751578D01*
X2723750D01*
X2723750Y2751578D01*
X2722189Y2751268D01*
X2720866Y2750384D01*
X2691006Y2720524D01*
X2689850Y2720250D01*
X2689850Y2720250D01*
X2689850Y2720250D01*
X2671850D01*
Y2702250D01*
X2676772D01*
Y2653789D01*
X2643528Y2620545D01*
X2643244Y2620489D01*
X2641756Y2619494D01*
X2640761Y2618006D01*
X2640412Y2616250D01*
X2640761Y2614494D01*
X2641756Y2613006D01*
X2643244Y2612011D01*
X2645000Y2611662D01*
X2646756Y2612011D01*
X2648244Y2613006D01*
X2649239Y2614494D01*
X2649295Y2614778D01*
X2683734Y2649216D01*
X2684618Y2650539D01*
X2684928Y2652100D01*
X2684928Y2652100D01*
Y2702250D01*
X2689672D01*
Y2637939D01*
X2638529Y2586796D01*
X2638245Y2586740D01*
X2636757Y2585745D01*
X2635762Y2584257D01*
X2635413Y2582501D01*
X2635762Y2580745D01*
X2636757Y2579256D01*
X2638245Y2578262D01*
X2640001Y2577913D01*
X2641757Y2578262D01*
X2643246Y2579256D01*
X2644240Y2580745D01*
X2644296Y2581028D01*
X2665774Y2602505D01*
X2666850Y2601786D01*
X2666750Y2601545D01*
X2666415Y2599000D01*
X2666750Y2596455D01*
X2667733Y2594083D01*
X2669296Y2592046D01*
X2671332Y2590483D01*
X2673704Y2589501D01*
X2676250Y2589166D01*
X2678795Y2589501D01*
X2681167Y2590483D01*
X2683203Y2592046D01*
X2684766Y2594083D01*
X2685749Y2596455D01*
X2686084Y2599000D01*
X2685749Y2601545D01*
X2684766Y2603917D01*
X2683203Y2605954D01*
X2681167Y2607517D01*
X2678795Y2608499D01*
X2676250Y2608834D01*
X2673704Y2608499D01*
X2673464Y2608399D01*
X2672744Y2609476D01*
X2696634Y2633366D01*
X2697518Y2634689D01*
X2697828Y2636249D01*
X2697828Y2636250D01*
Y2705355D01*
X2699099Y2705786D01*
X2699831Y2704831D01*
X2701711Y2703388D01*
X2703900Y2702481D01*
X2706250Y2702172D01*
X2708600Y2702481D01*
X2710789Y2703388D01*
X2712669Y2704831D01*
X2714112Y2706711D01*
X2715018Y2708900D01*
X2715328Y2711250D01*
X2715018Y2713599D01*
X2714828Y2714060D01*
X2734189Y2733422D01*
X2763311D01*
X2866491Y2630241D01*
X2867814Y2629357D01*
X2869375Y2629047D01*
X2869977Y2629166D01*
X2870000Y2629162D01*
X2871756Y2629511D01*
X2873244Y2630506D01*
X2874239Y2631994D01*
X2874588Y2633750D01*
X2874239Y2635506D01*
X2873244Y2636994D01*
X2871756Y2637989D01*
X2870000Y2638338D01*
X2869941Y2638326D01*
X2767884Y2740384D01*
X2766561Y2741268D01*
X2765000Y2741578D01*
X2765000Y2741578D01*
X2732500D01*
X2732500Y2741578D01*
X2730940Y2741268D01*
X2729616Y2740384D01*
X2709060Y2719827D01*
X2708600Y2720018D01*
X2706250Y2720327D01*
X2703900Y2720018D01*
X2703783Y2719969D01*
X2703064Y2721046D01*
X2725439Y2743422D01*
X2768571D01*
X2803627Y2708366D01*
X2803627Y2708366D01*
X2804950Y2707482D01*
X2806511Y2707171D01*
X2806511Y2707171D01*
X2811450D01*
Y2702250D01*
X2828422D01*
Y2696250D01*
X2828422Y2696250D01*
X2828732Y2694689D01*
X2829616Y2693366D01*
X2899672Y2623311D01*
Y2599189D01*
X2885811Y2585328D01*
X2798246D01*
X2798006Y2585489D01*
X2796250Y2585838D01*
X2794494Y2585489D01*
X2793006Y2584494D01*
X2792011Y2583006D01*
X2791662Y2581250D01*
X2792011Y2579494D01*
X2793006Y2578006D01*
X2794494Y2577011D01*
X2796250Y2576662D01*
X2798006Y2577011D01*
X2798246Y2577172D01*
X2887500D01*
X2887500Y2577172D01*
X2889061Y2577482D01*
X2890384Y2578366D01*
X2906634Y2594616D01*
X2906634Y2594616D01*
X2907518Y2595939D01*
X2907828Y2597500D01*
X2907828Y2597500D01*
Y2625000D01*
X2907828Y2625000D01*
X2907518Y2626561D01*
X2906634Y2627884D01*
X2836578Y2697939D01*
Y2706797D01*
X2837849Y2707049D01*
X2837989Y2706711D01*
X2839431Y2704831D01*
X2841311Y2703388D01*
X2843500Y2702481D01*
X2845850Y2702172D01*
X2848199Y2702481D01*
X2848660Y2702672D01*
X2970472Y2580860D01*
Y2561802D01*
X2970011Y2561611D01*
X2968131Y2560169D01*
X2966689Y2558289D01*
X2965782Y2556099D01*
X2965473Y2553750D01*
X2965782Y2551400D01*
X2966689Y2549211D01*
X2968131Y2547331D01*
X2970011Y2545889D01*
X2972201Y2544982D01*
X2974550Y2544672D01*
X2976900Y2544982D01*
X2979089Y2545889D01*
X2980969Y2547331D01*
X2982412Y2549211D01*
X2983318Y2551400D01*
X2983628Y2553750D01*
X2983318Y2556099D01*
X2982412Y2558289D01*
X2980969Y2560169D01*
X2979089Y2561611D01*
X2978629Y2561802D01*
Y2582549D01*
X2978318Y2584110D01*
X2977434Y2585433D01*
X2977434Y2585433D01*
X2854427Y2708440D01*
X2854618Y2708900D01*
X2854928Y2711250D01*
X2854618Y2713599D01*
X2853712Y2715789D01*
X2852269Y2717668D01*
X2850389Y2719111D01*
X2848199Y2720018D01*
X2845850Y2720327D01*
X2843882Y2720068D01*
X2843240Y2721223D01*
X2845439Y2723422D01*
X2864561D01*
X2867172Y2720811D01*
Y2719302D01*
X2866711Y2719111D01*
X2864831Y2717668D01*
X2863388Y2715789D01*
X2862482Y2713599D01*
X2862172Y2711250D01*
X2862482Y2708900D01*
X2863388Y2706711D01*
X2864831Y2704831D01*
X2866711Y2703388D01*
X2868900Y2702481D01*
X2871250Y2702172D01*
X2873600Y2702481D01*
X2875789Y2703388D01*
X2877669Y2704831D01*
X2879111Y2706711D01*
X2880018Y2708900D01*
X2880327Y2711250D01*
X2880018Y2713599D01*
X2879111Y2715789D01*
X2877669Y2717668D01*
X2875789Y2719111D01*
X2875328Y2719302D01*
Y2722500D01*
X2875328Y2722500D01*
X2875018Y2724061D01*
X2874134Y2725384D01*
X2874134Y2725384D01*
X2869134Y2730384D01*
X2867811Y2731268D01*
X2866250Y2731578D01*
X2866250Y2731578D01*
X2843750D01*
X2843750Y2731578D01*
X2842189Y2731268D01*
X2840866Y2730384D01*
X2830720Y2720238D01*
X2829450Y2720250D01*
X2829450Y2720250D01*
X2829450Y2720250D01*
X2811450D01*
Y2715328D01*
X2808200D01*
X2773144Y2750384D01*
X2771821Y2751268D01*
X2771562Y2751319D01*
X2770260Y2751578D01*
D02*
G37*
G36*
X2540000Y2694588D02*
X2538244Y2694239D01*
X2536756Y2693244D01*
X2535761Y2691756D01*
X2535682Y2691359D01*
X2534981Y2690309D01*
X2534670Y2688749D01*
X2534670Y2688748D01*
Y2666250D01*
X2534670Y2666250D01*
X2534981Y2664689D01*
X2535865Y2663366D01*
X2628729Y2570502D01*
X2628243Y2569328D01*
X2554250D01*
X2554250Y2569328D01*
X2552690Y2569018D01*
X2551366Y2568134D01*
X2551366Y2568134D01*
X2546356Y2563123D01*
X2545371Y2563531D01*
X2543750Y2563745D01*
Y2554750D01*
X2552745D01*
X2552532Y2556371D01*
X2552124Y2557356D01*
X2555939Y2561172D01*
X2561122D01*
X2561526Y2559902D01*
X2560289Y2558289D01*
X2559382Y2556099D01*
X2559073Y2553750D01*
X2559382Y2551400D01*
X2560289Y2549211D01*
X2561731Y2547331D01*
X2563611Y2545889D01*
X2565801Y2544982D01*
X2568150Y2544672D01*
X2570500Y2544982D01*
X2572689Y2545889D01*
X2574569Y2547331D01*
X2576012Y2549211D01*
X2576919Y2551400D01*
X2577228Y2553750D01*
X2576919Y2556099D01*
X2576012Y2558289D01*
X2574774Y2559902D01*
X2575179Y2561172D01*
X2586522D01*
X2586926Y2559902D01*
X2585689Y2558289D01*
X2584782Y2556099D01*
X2584473Y2553750D01*
X2584782Y2551400D01*
X2585689Y2549211D01*
X2587131Y2547331D01*
X2589012Y2545889D01*
X2591201Y2544982D01*
X2593550Y2544672D01*
X2595900Y2544982D01*
X2598089Y2545889D01*
X2599969Y2547331D01*
X2601412Y2549211D01*
X2602318Y2551400D01*
X2602628Y2553750D01*
X2602318Y2556099D01*
X2601412Y2558289D01*
X2600174Y2559902D01*
X2600579Y2561172D01*
X2611922D01*
X2612326Y2559902D01*
X2611089Y2558289D01*
X2610182Y2556099D01*
X2609873Y2553750D01*
X2610182Y2551400D01*
X2611089Y2549211D01*
X2612531Y2547331D01*
X2614411Y2545889D01*
X2616601Y2544982D01*
X2618950Y2544672D01*
X2621300Y2544982D01*
X2623489Y2545889D01*
X2625369Y2547331D01*
X2626812Y2549211D01*
X2627719Y2551400D01*
X2628028Y2553750D01*
X2627719Y2556099D01*
X2626812Y2558289D01*
X2625574Y2559902D01*
X2625979Y2561172D01*
X2637321D01*
X2637726Y2559902D01*
X2636489Y2558289D01*
X2635582Y2556099D01*
X2635273Y2553750D01*
X2635582Y2551400D01*
X2636489Y2549211D01*
X2637932Y2547331D01*
X2639811Y2545889D01*
X2642001Y2544982D01*
X2644350Y2544672D01*
X2646700Y2544982D01*
X2648889Y2545889D01*
X2650769Y2547331D01*
X2652212Y2549211D01*
X2653119Y2551400D01*
X2653428Y2553750D01*
X2653119Y2556099D01*
X2652212Y2558289D01*
X2650974Y2559902D01*
X2651379Y2561172D01*
X2662722D01*
X2663126Y2559902D01*
X2661889Y2558289D01*
X2660982Y2556099D01*
X2660673Y2553750D01*
X2660982Y2551400D01*
X2661889Y2549211D01*
X2663331Y2547331D01*
X2665211Y2545889D01*
X2667401Y2544982D01*
X2669750Y2544672D01*
X2672100Y2544982D01*
X2674289Y2545889D01*
X2676169Y2547331D01*
X2677612Y2549211D01*
X2678518Y2551400D01*
X2678828Y2553750D01*
X2678518Y2556099D01*
X2677612Y2558289D01*
X2676374Y2559902D01*
X2676779Y2561172D01*
X2688122D01*
X2688526Y2559902D01*
X2687289Y2558289D01*
X2686382Y2556099D01*
X2686073Y2553750D01*
X2686382Y2551400D01*
X2687289Y2549211D01*
X2688731Y2547331D01*
X2690611Y2545889D01*
X2692801Y2544982D01*
X2695150Y2544672D01*
X2697500Y2544982D01*
X2699689Y2545889D01*
X2701569Y2547331D01*
X2703012Y2549211D01*
X2703918Y2551400D01*
X2704228Y2553750D01*
X2703918Y2556099D01*
X2703012Y2558289D01*
X2701774Y2559902D01*
X2702179Y2561172D01*
X2713522D01*
X2713926Y2559902D01*
X2712689Y2558289D01*
X2711782Y2556099D01*
X2711472Y2553750D01*
X2711782Y2551400D01*
X2712689Y2549211D01*
X2714131Y2547331D01*
X2716011Y2545889D01*
X2718201Y2544982D01*
X2720550Y2544672D01*
X2722900Y2544982D01*
X2725089Y2545889D01*
X2726969Y2547331D01*
X2728412Y2549211D01*
X2729319Y2551400D01*
X2729628Y2553750D01*
X2729319Y2556099D01*
X2728412Y2558289D01*
X2727174Y2559902D01*
X2727579Y2561172D01*
X2730250D01*
X2730250Y2561172D01*
X2731811Y2561482D01*
X2733134Y2562366D01*
X2773750Y2602982D01*
X2782116Y2594616D01*
X2782116Y2594616D01*
X2783439Y2593732D01*
X2785000Y2593422D01*
X2785000Y2593422D01*
X2885000D01*
X2886561Y2593732D01*
X2887884Y2594616D01*
X2888768Y2595939D01*
X2889078Y2597500D01*
X2888768Y2599061D01*
X2887884Y2600384D01*
X2886561Y2601268D01*
X2885000Y2601578D01*
X2786689D01*
X2776634Y2611634D01*
X2775311Y2612518D01*
X2773750Y2612828D01*
X2772189Y2612518D01*
X2770866Y2611634D01*
X2770866Y2611634D01*
X2728560Y2569328D01*
X2691755D01*
X2691269Y2570502D01*
X2707722Y2586955D01*
X2708006Y2587011D01*
X2709494Y2588006D01*
X2710489Y2589494D01*
X2710838Y2591250D01*
X2710489Y2593006D01*
X2709494Y2594494D01*
X2708006Y2595489D01*
X2706250Y2595838D01*
X2704494Y2595489D01*
X2703006Y2594494D01*
X2702011Y2593006D01*
X2701955Y2592722D01*
X2685461Y2576229D01*
X2634537D01*
X2542827Y2667939D01*
Y2686477D01*
X2543244Y2686756D01*
X2544239Y2688244D01*
X2544588Y2690000D01*
X2544239Y2691756D01*
X2543244Y2693244D01*
X2541756Y2694239D01*
X2540000Y2694588D01*
D02*
G37*
G36*
X2731650Y2720327D02*
X2729301Y2720018D01*
X2727111Y2719111D01*
X2725231Y2717668D01*
X2723788Y2715789D01*
X2722882Y2713599D01*
X2722572Y2711250D01*
X2722882Y2708900D01*
X2723788Y2706711D01*
X2725231Y2704831D01*
X2727111Y2703388D01*
X2729301Y2702481D01*
X2731650Y2702172D01*
X2734000Y2702481D01*
X2734460Y2702672D01*
X2790922Y2646211D01*
Y2619496D01*
X2790761Y2619256D01*
X2790412Y2617500D01*
X2790761Y2615744D01*
X2791756Y2614256D01*
X2793244Y2613261D01*
X2795000Y2612912D01*
X2796756Y2613261D01*
X2798244Y2614256D01*
X2799239Y2615744D01*
X2799588Y2617500D01*
X2799239Y2619256D01*
X2799078Y2619496D01*
Y2647900D01*
X2798768Y2649460D01*
X2797884Y2650784D01*
X2797884Y2650784D01*
X2740228Y2708440D01*
X2740418Y2708900D01*
X2740728Y2711250D01*
X2740418Y2713599D01*
X2739511Y2715789D01*
X2738069Y2717668D01*
X2736189Y2719111D01*
X2734000Y2720018D01*
X2731650Y2720327D01*
D02*
G37*
G36*
X2541750Y2552750D02*
X2532755D01*
X2532969Y2551129D01*
X2533980Y2548687D01*
X2535590Y2546589D01*
X2537687Y2544980D01*
X2540129Y2543968D01*
X2541750Y2543755D01*
Y2552750D01*
D02*
G37*
G36*
X2552745D02*
X2543750D01*
Y2543755D01*
X2545371Y2543968D01*
X2547814Y2544980D01*
X2549911Y2546589D01*
X2551520Y2548687D01*
X2552532Y2551129D01*
X2552745Y2552750D01*
D02*
G37*
G36*
X2974550Y2537428D02*
X2972201Y2537118D01*
X2970011Y2536211D01*
X2968131Y2534769D01*
X2966689Y2532889D01*
X2965782Y2530699D01*
X2965473Y2528350D01*
X2965782Y2526001D01*
X2966689Y2523811D01*
X2968131Y2521931D01*
X2970011Y2520488D01*
X2972201Y2519582D01*
X2974550Y2519272D01*
X2976900Y2519582D01*
X2979089Y2520488D01*
X2980969Y2521931D01*
X2982412Y2523811D01*
X2983318Y2526001D01*
X2983628Y2528350D01*
X2983318Y2530699D01*
X2982412Y2532889D01*
X2980969Y2534769D01*
X2979089Y2536211D01*
X2976900Y2537118D01*
X2974550Y2537428D01*
D02*
G37*
G36*
X2551750Y2537350D02*
X2533750D01*
Y2519350D01*
X2551750D01*
Y2537350D01*
D02*
G37*
G36*
X2796750Y2562827D02*
X2794401Y2562518D01*
X2792211Y2561611D01*
X2790331Y2560169D01*
X2788889Y2558289D01*
X2787982Y2556099D01*
X2787673Y2553750D01*
X2787982Y2551400D01*
X2788889Y2549211D01*
X2790331Y2547331D01*
X2792211Y2545889D01*
X2794401Y2544982D01*
X2796750Y2544672D01*
X2799100Y2544982D01*
X2801289Y2545889D01*
X2803169Y2547331D01*
X2804612Y2549211D01*
X2805518Y2551400D01*
X2805828Y2553750D01*
X2805518Y2556099D01*
X2804612Y2558289D01*
X2803169Y2560169D01*
X2801289Y2561611D01*
X2799100Y2562518D01*
X2796750Y2562827D01*
D02*
G37*
G36*
X2822150D02*
X2819801Y2562518D01*
X2817611Y2561611D01*
X2815732Y2560169D01*
X2814289Y2558289D01*
X2813382Y2556099D01*
X2813073Y2553750D01*
X2813382Y2551400D01*
X2814289Y2549211D01*
X2815732Y2547331D01*
X2817611Y2545889D01*
X2819801Y2544982D01*
X2822150Y2544672D01*
X2824500Y2544982D01*
X2826689Y2545889D01*
X2828569Y2547331D01*
X2830012Y2549211D01*
X2830919Y2551400D01*
X2831228Y2553750D01*
X2830919Y2556099D01*
X2830012Y2558289D01*
X2828569Y2560169D01*
X2826689Y2561611D01*
X2824500Y2562518D01*
X2822150Y2562827D01*
D02*
G37*
G36*
X2745950D02*
X2743601Y2562518D01*
X2741411Y2561611D01*
X2739531Y2560169D01*
X2738089Y2558289D01*
X2737182Y2556099D01*
X2736873Y2553750D01*
X2737182Y2551400D01*
X2738089Y2549211D01*
X2739531Y2547331D01*
X2741411Y2545889D01*
X2743601Y2544982D01*
X2745950Y2544672D01*
X2748300Y2544982D01*
X2750489Y2545889D01*
X2752369Y2547331D01*
X2753812Y2549211D01*
X2754719Y2551400D01*
X2755028Y2553750D01*
X2754719Y2556099D01*
X2753812Y2558289D01*
X2752369Y2560169D01*
X2750489Y2561611D01*
X2748300Y2562518D01*
X2745950Y2562827D01*
D02*
G37*
G36*
X2771350D02*
X2769001Y2562518D01*
X2766812Y2561611D01*
X2764931Y2560169D01*
X2763489Y2558289D01*
X2762582Y2556099D01*
X2762273Y2553750D01*
X2762582Y2551400D01*
X2763489Y2549211D01*
X2764931Y2547331D01*
X2766812Y2545889D01*
X2769001Y2544982D01*
X2771350Y2544672D01*
X2773700Y2544982D01*
X2775889Y2545889D01*
X2777769Y2547331D01*
X2779212Y2549211D01*
X2780118Y2551400D01*
X2780428Y2553750D01*
X2780118Y2556099D01*
X2779212Y2558289D01*
X2777769Y2560169D01*
X2775889Y2561611D01*
X2773700Y2562518D01*
X2771350Y2562827D01*
D02*
G37*
%LPD*%
D18*
X2924375Y2610625D02*
X2936250Y2598750D01*
X2765000Y2737500D02*
X2869375Y2633125D01*
X2687151Y2572151D02*
X2706250Y2591250D01*
X2538749Y2666250D02*
X2632848Y2572151D01*
X2687151D01*
X2785000Y2597500D02*
X2885000D01*
X2773750Y2608750D02*
X2785000Y2597500D01*
X2730250Y2565250D02*
X2773750Y2608750D01*
X2554250Y2565250D02*
X2730250D01*
X2542750Y2553750D02*
X2554250Y2565250D01*
X2770260Y2747500D02*
X2806511Y2711250D01*
X2820450D01*
X2693750Y2717500D02*
X2723750Y2747500D01*
X2770260D01*
X2693750Y2636249D02*
Y2717500D01*
X2640001Y2582501D02*
X2693750Y2636249D01*
X2974550Y2553750D02*
Y2582549D01*
X2845850Y2711250D02*
X2974550Y2582549D01*
X2680850Y2652100D02*
Y2711250D01*
X2645000Y2616250D02*
X2680850Y2652100D01*
X2731650Y2711250D02*
X2795000Y2647900D01*
Y2617500D02*
Y2647900D01*
X2936250Y2541250D02*
X2949150Y2528350D01*
X2732500Y2737500D02*
X2765000D01*
X2706250Y2711250D02*
X2732500Y2737500D01*
X2936250Y2541250D02*
Y2598750D01*
X2796250Y2581250D02*
X2887500D01*
X2903750Y2597500D01*
Y2625000D01*
X2832500Y2696250D02*
X2903750Y2625000D01*
X2832500Y2696250D02*
Y2716250D01*
X2843750Y2727500D01*
X2866250D01*
X2871250Y2722500D01*
Y2711250D02*
Y2722500D01*
X2538749Y2666250D02*
Y2688749D01*
X2540000Y2690000D01*
D22*
X2731650Y2711250D02*
D03*
X2706250D02*
D03*
X2871250D02*
D03*
X2845850D02*
D03*
X2974550Y2553750D02*
D03*
Y2528350D02*
D03*
X2949150Y2553750D02*
D03*
Y2528350D02*
D03*
X2923750Y2553750D02*
D03*
Y2528350D02*
D03*
X2898350Y2553750D02*
D03*
Y2528350D02*
D03*
X2872950Y2553750D02*
D03*
Y2528350D02*
D03*
X2847550Y2553750D02*
D03*
Y2528350D02*
D03*
X2822150Y2553750D02*
D03*
Y2528350D02*
D03*
X2796750Y2553750D02*
D03*
Y2528350D02*
D03*
X2771350Y2553750D02*
D03*
Y2528350D02*
D03*
X2745950Y2553750D02*
D03*
Y2528350D02*
D03*
X2720550Y2553750D02*
D03*
Y2528350D02*
D03*
X2695150Y2553750D02*
D03*
Y2528350D02*
D03*
X2669750Y2553750D02*
D03*
Y2528350D02*
D03*
X2644350Y2553750D02*
D03*
Y2528350D02*
D03*
X2618950Y2553750D02*
D03*
Y2528350D02*
D03*
X2593550Y2553750D02*
D03*
Y2528350D02*
D03*
X2568150Y2553750D02*
D03*
Y2528350D02*
D03*
X2542750Y2553750D02*
D03*
D23*
X2680850Y2711250D02*
D03*
X2820450D02*
D03*
X2542750Y2528350D02*
D03*
D25*
X2773750Y2608750D02*
D03*
X2540000Y2690000D02*
D03*
X2870000Y2633750D02*
D03*
X2706250Y2591250D02*
D03*
X2885000Y2597500D02*
D03*
X2640001Y2582501D02*
D03*
X2645000Y2616250D02*
D03*
X2795000Y2617500D02*
D03*
X2923750Y2610000D02*
D03*
X2796250Y2581250D02*
D03*
D26*
X2676250Y2599000D02*
D03*
M02*
